# xmcd
#
# Track frame offsets: 
#        150
#        7280
#        28345
#        43775
#        57255
#        80622
#        92952
#        108120
#        127727
#        150880
#        161402
#        176730
#        192367
#
# Disc length: 2769 seconds
#
# Revision: 9
# Processed by: cddbd v1.5.2PL0 Copyright (c) Steve Scherf et al.
# Submitted via: ExactAudioCopy v1.3
#
DISCID=a20acf0d
DTITLE=Everlast - Eat at Whitey's
DYEAR=2000
DGENRE=Hip-Hop
TTITLE0=Whitey
TTITLE1=Black Jesus
TTITLE2=I Can't Move
TTITLE3=Black Coffee
TTITLE4=Babylon Feeling (feat. Carlos Santana)
TTITLE5=Deadly Assassins (feat. B-Real)
TTITLE6=Children's Story (feat. Rahzel)
TTITLE7=Love for Real (feat. N'Dea Davenport)
TTITLE8=One and the Same
TTITLE9=We're All Gonna Die (feat. Cee-Lo)
TTITLE10=Mercy on My Soul (feat. Warren Haynes)
TTITLE11=One, Two (feat. Kurupt)
TTITLE12=Graves to Dig
EXTD=YEAR: 2000
EXTT0=
EXTT1=
EXTT2=
EXTT3=feat. Merry Clayton
EXTT4=feat. Carlos Santana
EXTT5=feat. B-Real
EXTT6=feat. Rahzel
EXTT7=feat. N'Dea Davenport
EXTT8=
EXTT9=feat. Cee-Lo
EXTT10=feat. Warren Haynes
EXTT11=feat. Kurupt
EXTT12=
PLAYORDER=
